<svg xmlns="http://www.w3.org/2000/svg">

  <symbol id="github-logo" viewBox="0 0 64 64">
    <path d="M 13 10 C 9.262 15.846 8.4448125 20.401234 8.3828125 23.115234 C 11.999813 20.000234 17.99975 17.999891 23.71875 17.962891 C 22.06575 15.742891 18.894 12.642 13 10 z M 51 10 C 45.054 12.666 41.877328 15.799437 40.236328 18.023438 C 46.000328 18.000438 52.999188 21.000438 55.617188 23.773438 C 55.675187 21.176437 55.06 16.349 51 10 z M 32 18.5 C 28.5465 18.5 25.092547 19 21.185547 20 C 13.195547 22.045 6.3837969 26.927109 6.8417969 35.162109 L 7.0039062 38.0625 C 7.0836981 39.496474 7.3352648 40.856601 7.7128906 42.150391 C 5.8177153 42.35656 3.0543923 42.854641 0.55273438 44.105469 A 1.0001161 1.0001161 0 0 0 1.4472656 45.894531 C 3.8843567 44.675986 6.702717 44.270388 8.4238281 44.115234 C 8.9576808 45.360171 9.6203375 46.523505 10.412109 47.585938 C 7.7781891 48.280785 4.1850522 49.816191 1.2324219 53.359375 A 1.0001 1.0001 0 1 0 2.7675781 54.640625 C 5.781497 51.023922 9.5232447 49.735167 11.837891 49.269531 C 15.3231 52.875744 20.369911 55 25.964844 55 L 38.033203 55 C 43.628136 55 48.676797 52.875744 52.162109 49.269531 C 54.476755 49.735177 58.218503 51.023954 61.232422 54.640625 A 1.0001 1.0001 0 1 0 62.767578 53.359375 C 59.814948 49.816219 56.221811 48.280793 53.587891 47.585938 C 54.379671 46.523505 55.042359 45.360171 55.576172 44.115234 C 57.297283 44.270388 60.115644 44.675984 62.552734 45.894531 A 1.0001163 1.0001163 0 1 0 63.447266 44.105469 C 60.944783 42.854228 58.180366 42.356428 56.285156 42.150391 C 56.662739 40.856554 56.916441 39.496533 56.996094 38.0625 L 57.15625 35.162109 C 57.61425 26.927109 50.803453 22.045 42.814453 20 C 38.907453 19 35.4535 18.5 32 18.5 z M 22.798828 30.228516 C 23.103248 30.223058 23.409984 30.229297 23.716797 30.248047 C 29.217797 30.584047 34.786109 30.584047 40.287109 30.248047 C 45.196109 29.948047 49.886656 32.787359 51.472656 37.443359 C 51.487656 37.487359 51.503578 37.532172 51.517578 37.576172 C 52.562578 40.785172 51.488422 44.260297 49.107422 46.654297 C 46.410422 49.366297 42.513156 51 38.035156 51 L 25.964844 51 C 21.486844 51 17.589578 49.366297 14.892578 46.654297 C 12.511578 44.260297 11.436375 40.784219 12.484375 37.574219 C 12.498375 37.531219 12.513344 37.486359 12.527344 37.443359 C 14.015156 33.078359 18.232537 30.310386 22.798828 30.228516 z M 23.5 34 A 2.5 4.5 0 0 0 23.5 43 A 2.5 4.5 0 0 0 23.5 34 z M 40.5 34 A 2.5 4.5 0 0 0 40.5 43 A 2.5 4.5 0 0 0 40.5 34 z M 32 41 A 2 2 0 0 0 32 45 A 2 2 0 0 0 32 41 z M 36.037109 44.988281 A 1.0001 1.0001 0 0 0 35.201172 45.398438 C 34.471032 46.370356 33.314511 47 32 47 C 30.684293 47 29.529179 46.370636 28.798828 45.398438 A 1.0001 1.0001 0 1 0 27.201172 46.601562 C 28.294821 48.057364 30.043707 49 32 49 C 33.955489 49 35.704968 48.057645 36.798828 46.601562 A 1.0001 1.0001 0 0 0 36.037109 44.988281 z" fill="currentColor"></path>
  </symbol>

  <symbol id="open-icon" viewBox="0 0 24 24">
    <path d="M17 19V11M3 11H13M3 7H13M3 15H9M13 15H21" stroke="currentColor" stroke-width="2" stroke-linecap="round" stroke-linejoin="round"/>
  </symbol>

  <symbol id="close-icon" viewBox="0 0 24 24">
    <path d="M3 11H11M3 7H13M3 15H11M14.1716 12.1716L19.8284 17.8284M14.1716 17.8284L19.8284 12.1716" stroke="currentColor" stroke-width="2" stroke-linecap="round" stroke-linejoin="round"/>
  </symbol>

  <symbol id="on-icon" viewBox="0 0 24 24">
    <g id="SVGRepo_bgCarrier" stroke-width="0"/>
    <g id="SVGRepo_tracerCarrier" stroke-linecap="round" stroke-linejoin="round"/>
    <g id="SVGRepo_iconCarrier">
      <path fill-rule="evenodd" clip-rule="evenodd" d="M10.4 1.8C11.5532 0.262376 14 1.07799 14 3.00001V21.1214C14 23.0539 11.5313 23.8627 10.3878 22.3049L6.49356 17H4C2.34315 17 1 15.6569 1 14V10C1 8.34315 2.34315 7 4 7H6.5L10.4 1.8ZM12 3L8.1 8.2C7.72229 8.70361 7.12951 9 6.5 9H4C3.44772 9 3 9.44772 3 10V14C3 14.5523 3.44772 15 4 15H6.49356C7.13031 15 7.72901 15.3032 8.10581 15.8165L12 21.1214V3Z" fill="currentColor"/>
      <path d="M16.2137 4.17445C16.1094 3.56451 16.5773 3 17.1961 3C17.6635 3 18.0648 3.328 18.1464 3.78824C18.4242 5.35347 19 8.96465 19 12C19 15.0353 18.4242 18.6465 18.1464 20.2118C18.0648 20.672 17.6635 21 17.1961 21C16.5773 21 16.1094 20.4355 16.2137 19.8256C16.5074 18.1073 17 14.8074 17 12C17 9.19264 16.5074 5.8927 16.2137 4.17445Z" fill="currentColor"/>
      <path d="M21.41 5C20.7346 5 20.2402 5.69397 20.3966 6.35098C20.6758 7.52413 21 9.4379 21 12C21 14.5621 20.6758 16.4759 20.3966 17.649C20.2402 18.306 20.7346 19 21.41 19C21.7716 19 22.0974 18.7944 22.2101 18.4509C22.5034 17.5569 23 15.5233 23 12C23 8.47672 22.5034 6.44306 22.2101 5.54913C22.0974 5.20556 21.7716 5 21.41 5Z" fill="currentColor"/>
    </g>
  </symbol>

  <symbol id="off-icon" viewBox="0 0 24 24">
    <g id="SVGRepo_bgCarrier" stroke-width="0"/>
    <g id="SVGRepo_tracerCarrier" stroke-linecap="round" stroke-linejoin="round"/>
    <g id="SVGRepo_iconCarrier">
      <path fill-rule="evenodd" clip-rule="evenodd" d="M14 3.00001C14 1.07799 11.5532 0.262376 10.4 1.8L6.5 7H4C2.34315 7 1 8.34315 1 10V14C1 15.6569 2.34315 17 4 17H6.49356L10.3878 22.3049C11.5313 23.8627 14 23.0539 14 21.1214V3.00001ZM8.1 8.2L12 3V21.1214L8.10581 15.8165C7.72901 15.3032 7.13031 15 6.49356 15H4C3.44772 15 3 14.5523 3 14V10C3 9.44772 3.44772 9 4 9H6.5C7.12951 9 7.72229 8.70361 8.1 8.2Z" fill="currentColor"/>
      <path d="M21.2929 8.57094C21.6834 8.18041 22.3166 8.18042 22.7071 8.57094C23.0976 8.96146 23.0976 9.59463 22.7071 9.98515L20.7603 11.9319L22.7071 13.8787C23.0976 14.2692 23.0976 14.9024 22.7071 15.2929C22.3166 15.6834 21.6834 15.6834 21.2929 15.2929L19.3461 13.3461L17.3994 15.2929C17.0088 15.6834 16.3757 15.6834 15.9852 15.2929C15.5946 14.9023 15.5946 14.2692 15.9852 13.8787L17.9319 11.9319L15.9852 9.98517C15.5946 9.59464 15.5946 8.96148 15.9852 8.57096C16.3757 8.18043 17.0088 8.18043 17.3994 8.57096L19.3461 10.5177L21.2929 8.57094Z" fill="currentColor"/>
    </g>
  </symbol>

</svg>